<?xml version="1.0" encoding="utf-8"?>
<!-- Generator: Adobe Illustrator 18.0.0, SVG Export Plug-In . SVG Version: 6.00 Build 0)  -->
<!DOCTYPE svg PUBLIC "-//W3C//DTD SVG 1.0//EN" "http://www.w3.org/TR/2001/REC-SVG-20010904/DTD/svg10.dtd">
<svg version="1.0" xmlns="http://www.w3.org/2000/svg" xmlns:xlink="http://www.w3.org/1999/xlink" x="0px" y="0px"
	 viewBox="0 0 184.8 18.5" enable-background="new 0 0 184.8 18.5" xml:space="preserve">
<g id="Layer_2">
</g>
<g id="Layer_1">
	<g>
		<g>
			<path fill="#FCFCFC" d="M11.6,9.5c-0.5-0.4-1-0.8-1.7-1.2C9.2,8,8.4,7.7,7.5,7.4C7,7.2,6.6,7.1,6.3,6.9c-0.4-0.1-0.7-0.3-1-0.5
				C5,6.3,4.8,6.1,4.6,5.8C4.5,5.6,4.4,5.3,4.4,5c0-0.5,0.2-1,0.6-1.2c0.4-0.3,1.1-0.4,2.1-0.4c0.9,0,1.6,0.1,2.2,0.3
				c0.6,0.2,1.2,0.4,1.7,0.7l1.2-3.1c-0.6-0.3-1.3-0.6-2.1-0.8C9.1,0.1,8,0,6.8,0c-1,0-1.9,0.1-2.7,0.4C3.3,0.6,2.6,1,2.1,1.4
				c-0.6,0.5-1,1-1.3,1.7C0.5,3.8,0.3,4.5,0.3,5.3c0,0.8,0.1,1.5,0.4,2.1C1,8,1.4,8.5,1.9,8.9c0.5,0.4,1,0.7,1.6,1
				c0.6,0.3,1.2,0.5,1.7,0.7C6.5,11,7.4,11.4,8,11.8c0.5,0.4,0.8,0.9,0.8,1.4c0,0.3,0,0.5-0.1,0.7c-0.1,0.2-0.2,0.4-0.5,0.6
				C8,14.7,7.7,14.9,7.3,15C7,15,6.5,15.1,5.9,15.1c-1.1,0-2.1-0.1-2.9-0.3c-0.8-0.2-1.4-0.5-2-0.8L0,17.1c0.2,0.1,0.5,0.3,0.9,0.4
				c0.3,0.2,0.8,0.3,1.3,0.4c0.5,0.1,1,0.3,1.7,0.3c0.6,0.1,1.3,0.1,2.1,0.1c2.3,0,4.1-0.5,5.2-1.4c1.2-0.9,1.7-2.2,1.7-3.9
				c0-0.9-0.1-1.6-0.3-2.2C12.4,10.5,12,10,11.6,9.5"/>
		</g>
		<polygon fill="#FCFCFC" points="13.9,3.8 19.3,3.8 19.3,18.1 23.3,18.1 23.3,3.8 28.6,3.8 28.6,0.4 13.9,0.4 		"/>
		<g>
			<path fill="#FCFCFC" d="M39.5,7.9c-0.6,0.4-1.7,0.6-3.2,0.6h-1.1V3.7c0.2,0,0.4,0,0.7-0.1c0.2,0,0.5,0,0.8,0
				c1.3,0,2.2,0.2,2.9,0.6c0.7,0.4,1,1,1,1.9C40.5,6.9,40.2,7.6,39.5,7.9 M43.6,14.2c-0.4-0.6-0.8-1.2-1.2-1.8
				c-0.4-0.6-0.8-1.1-1.1-1.5c1.1-0.4,1.9-1.1,2.5-1.8c0.6-0.8,0.9-1.8,0.9-3c0-2-0.7-3.5-2.1-4.4c-1.4-0.9-3.5-1.4-6.1-1.4
				c-0.7,0-1.6,0-2.5,0.1c-0.9,0.1-1.8,0.2-2.7,0.4v17.5h4v-6.5h2c0.3,0.4,0.7,0.9,1,1.4c0.3,0.5,0.7,1,1,1.6c0.4,0.6,0.7,1.1,1,1.7
				c0.3,0.6,0.7,1.2,1,1.8h4.5c-0.3-0.6-0.6-1.3-1-2C44.3,15.5,44,14.8,43.6,14.2"/>
			<path fill="#FCFCFC" d="M53.6,11.1c0.3-0.8,0.6-1.5,0.8-2.2C54.7,8.2,55,7.6,55.2,7c0.2-0.6,0.4-1.1,0.6-1.5
				c0.2-0.4,0.3-0.8,0.4-1.1c0.1,0.3,0.2,0.6,0.4,1c0.2,0.4,0.4,1,0.6,1.5c0.2,0.6,0.5,1.2,0.7,1.9c0.3,0.7,0.5,1.4,0.8,2.2H53.6z
				 M61.6,8.3c-0.6-1.4-1.1-2.8-1.7-4.1c-0.6-1.3-1.1-2.5-1.7-3.8h-3.8c-0.6,1.2-1.2,2.5-1.7,3.8c-0.6,1.3-1.1,2.6-1.7,4.1
				c-0.6,1.4-1.2,3-1.8,4.6c-0.6,1.6-1.2,3.4-1.9,5.3h4.1c0.2-0.6,0.4-1.2,0.6-1.9c0.2-0.7,0.4-1.3,0.7-1.9h6.9
				c0.2,0.6,0.5,1.3,0.7,1.9c0.2,0.6,0.4,1.3,0.6,1.9h4.3c-0.7-1.9-1.3-3.7-1.9-5.3C62.7,11.2,62.1,9.7,61.6,8.3"/>
			<path fill="#FCFCFC" d="M78.8,10.9C78.2,10,77.5,9,76.8,8c-0.7-1-1.4-2-2.1-2.9c-0.7-0.9-1.4-1.8-2.1-2.6
				c-0.7-0.8-1.3-1.5-1.9-2.1h-3.2v17.7h3.9V6.5c1.5,1.8,2.9,3.6,4.2,5.6c1.3,2,2.6,4,3.7,6h3.4V0.4h-4V10.9z"/>
		</g>
		<polygon fill="#FCFCFC" points="108.8,10.5 115.9,10.5 115.9,7.2 108.8,7.2 108.8,3.8 116.8,3.8 116.8,0.4 104.8,0.4 104.8,18.1
			117.4,18.1 117.4,14.8 108.8,14.8 		"/>
		<polygon fill="#FCFCFC" points="124.3,0.4 120.3,0.4 120.3,18.1 132.1,18.1 132.1,14.7 124.3,14.7 		"/>
		<g>
			<path fill="#FCFCFC" d="M146.6,11.6c-0.2,0.7-0.5,1.3-0.9,1.8c-0.4,0.5-0.9,0.9-1.5,1.2c-0.6,0.3-1.2,0.4-2,0.4
				c-0.8,0-1.4-0.1-2-0.4c-0.6-0.3-1.1-0.7-1.5-1.2c-0.4-0.5-0.7-1.1-0.9-1.8c-0.2-0.7-0.3-1.5-0.3-2.4c0-0.9,0.1-1.6,0.3-2.3
				c0.2-0.7,0.5-1.3,0.9-1.8c0.4-0.5,0.9-0.9,1.5-1.2c0.6-0.3,1.2-0.4,2-0.4c0.7,0,1.4,0.1,2,0.4c0.6,0.3,1.1,0.7,1.5,1.2
				c0.4,0.5,0.7,1.1,0.9,1.8c0.2,0.7,0.3,1.5,0.3,2.4C147,10.1,146.9,10.9,146.6,11.6 M148.5,2.4c-0.8-0.8-1.7-1.4-2.8-1.8
				c-1.1-0.4-2.2-0.6-3.4-0.6c-1.2,0-2.3,0.2-3.4,0.6c-1.1,0.4-2,1-2.8,1.8c-0.8,0.8-1.5,1.8-1.9,2.9c-0.5,1.2-0.7,2.5-0.7,4
				c0,1.5,0.2,2.9,0.7,4c0.5,1.2,1.1,2.1,1.9,2.9c0.8,0.8,1.7,1.4,2.8,1.8c1.1,0.4,2.2,0.6,3.4,0.6c1.2,0,2.4-0.2,3.5-0.6
				c1.1-0.4,2-1,2.8-1.8c0.8-0.8,1.4-1.7,1.9-2.9c0.5-1.2,0.7-2.5,0.7-4c0-1.5-0.2-2.9-0.7-4C149.9,4.1,149.3,3.1,148.5,2.4"/>
			<path fill="#FCFCFC" d="M164.6,3.7c-0.4,1.2-0.8,2.4-1.2,3.5c-0.4,1.2-0.8,2.3-1.2,3.4c-0.4,1.1-0.8,2-1.1,2.8
				c-0.4-0.8-0.7-1.7-1.1-2.8c-0.4-1.1-0.8-2.2-1.2-3.4c-0.4-1.2-0.8-2.4-1.2-3.5c-0.4-1.2-0.8-2.3-1.1-3.3H152
				c0.4,1.1,0.8,2.4,1.3,3.8c0.5,1.4,1.1,2.9,1.7,4.5c0.6,1.6,1.3,3.2,2,4.8c0.7,1.6,1.4,3.1,2.1,4.6h3.8c0.7-1.5,1.4-3,2.1-4.6
				c0.7-1.6,1.3-3.2,1.9-4.8c0.6-1.6,1.2-3.1,1.7-4.5c0.5-1.4,1-2.7,1.4-3.8h-4.2C165.4,1.4,165,2.5,164.6,3.7"/>
		</g>
		<polygon fill="#FCFCFC" points="176.2,14.8 176.2,10.5 183.3,10.5 183.3,7.2 176.2,7.2 176.2,3.8 184.2,3.8 184.2,0.4 172.2,0.4
			172.2,18.1 184.8,18.1 184.8,14.8 		"/>
		<g>
			<g>
				<path fill="#FCFCFC" d="M95.2,8.8v2.1l1.9,0.6v3.5C96.9,15,96.6,15,96.3,15c-0.3,0-0.7,0-1.1,0c-0.8,0-1.5-0.1-2.1-0.4
					c-0.6-0.3-1.1-0.7-1.5-1.2c-0.4-0.5-0.7-1.1-0.9-1.8c-0.2-0.7-0.3-1.5-0.3-2.4c0-1.8,0.4-3.2,1.2-4.2c0.8-1,2.2-1.5,4-1.5
					c0.8,0,1.6,0.1,2.3,0.3c0.7,0.2,1.3,0.5,1.9,0.8l1.2-3.2c-0.1-0.1-0.4-0.2-0.7-0.4c-0.3-0.2-0.7-0.3-1.2-0.4
					c-0.5-0.1-1.1-0.3-1.7-0.4C96.5,0.1,95.8,0,94.9,0c-1.2,0-2.4,0.2-3.5,0.6c-1.1,0.4-2,1-2.8,1.8c-0.8,0.8-1.4,1.8-1.9,2.9
					c-0.5,1.1-0.7,2.5-0.7,3.9c0,1.5,0.2,2.8,0.6,3.9c0.4,1.1,1,2.1,1.8,2.9c0.8,0.8,1.7,1.4,2.8,1.8c1.1,0.4,2.3,0.6,3.6,0.6
					c1.6,0,2.9-0.1,3.9-0.3c1.1-0.2,1.8-0.4,2.3-0.6V8.8h-4H95.2z"/>
			</g>
		</g>
	</g>
</g>
</svg>
